Coordinates
version=1
nRows=9
nColumns=24
inDegrees=yes

Units are S.I. units (second, meters, Newtons, ...)
Angles are in degrees.

endheader
time	pelvis_tilt	pelvis_list	pelvis_rotation	pelvis_tx	pelvis_ty	pelvis_tz	hip_flexion_r	hip_adduction_r	hip_rotation_r	knee_angle_r	ankle_angle_r	subtalar_angle_r	mtp_angle_r	hip_flexion_l	hip_adduction_l	hip_rotation_l	knee_angle_l	ankle_angle_l	subtalar_angle_l	mtp_angle_l	lumbar_extension	lumbar_bending	lumbar_rotation
      5.41000000	     -0.13753329	      2.92601810	      8.77921818	     -0.72459028	      0.67243724	      0.15353689	     23.99251125	     -0.70269376	      5.89340721	      2.70622417	      8.31740286	    -15.47364128	      0.00000000	    -29.45790823	      3.89136559	     35.30269318	     -2.95887597	      5.09820217	    -15.24072113	      0.00000000	    -15.77179490	     -3.49452495	    -13.23962208
      5.42000000	      0.11701409	      2.44726967	      8.29116619	     -0.70710086	      0.67221275	      0.15331768	     24.33933769	      0.33450890	      6.01939508	     -0.23458468	      7.64971576	    -16.02556517	      0.00000000	    -29.13610033	      4.28418269	     31.26784573	     -6.47907544	      5.43698630	     -9.47760227	      0.00000000	    -15.59810786	     -2.49920367	    -13.15628234
      5.43000000	      0.11864448	      1.88524656	      7.90900457	     -0.69000271	      0.67210935	      0.15303475	     25.18614293	      1.40448195	      5.44284406	     -3.76537094	      7.04691556	    -15.65282547	      0.00000000	    -27.71968281	      4.62118296	     26.07240094	    -11.05865432	      5.59967223	     -2.97687933	      0.00000000	    -15.22681084	     -1.40461406	    -13.05929888
      5.44000000	     -0.00383642	      1.28044211	      7.57302599	     -0.67338281	      0.67210863	      0.15297243	     26.36362192	      2.47204705	      4.29710721	     -7.69415085	      6.54992886	    -14.58078957	      0.00000000	    -25.52340155	      4.65614134	     20.59300828	    -16.25836447	      4.74542494	      2.88887518	      0.00000000	    -14.83028232	     -0.34492710	    -13.00264750
      5.45000000	     -0.44800110	      0.58027558	      7.23509849	     -0.65711727	      0.67179940	      0.15283302	     27.95695648	      3.50036344	      3.05929160	    -11.76077333	      6.17134089	    -13.10081032	      0.00000000	    -22.51626773	      4.38999064	     15.69772663	    -21.83940940	      2.67529164	      6.85943822	      0.00000000	    -14.08067749	      0.80367507	    -12.84622258
      5.46000000	     -0.72846663	     -0.14950888	      6.85546883	     -0.64121519	      0.67172531	      0.15282073	     29.24411783	      4.55324148	      2.18570026	    -15.59030345	      5.72915821	    -12.02606042	      0.00000000	    -19.41322244	      3.83213408	     11.58201262	    -27.46808694	     -0.45635006	      9.07411056	      0.00000000	    -13.63558843	      1.95365476	    -12.60872770
      5.47000000	     -0.86948598	     -1.00190904	      6.64376462	     -0.62569585	      0.67186587	      0.15272623	     30.08752711	      5.67455608	      1.76478322	    -18.88891395	      5.34777547	    -11.48118706	      0.00000000	    -16.14509740	      2.88497877	      8.23080064	    -33.23094434	     -4.04198671	      9.84574772	      0.00000000	    -13.42159018	      3.26177176	    -12.52779748
      5.48000000	     -0.89086054	     -2.01313312	      6.62569887	     -0.61050012	      0.67222380	      0.15267113	     30.46737860	      6.92831678	      1.51971447	    -21.54064198	      5.14394558	    -11.46386280	      0.00000000	    -12.77856681	      1.56650244	      5.73559057	    -38.98206285	     -7.62804709	      9.61631428	      0.00000000	    -13.39750251	      4.69846491	    -12.53658457
      5.49000000	     -0.90379571	     -3.03508204	      6.85984268	     -0.59577807	      0.67277592	      0.15255324	     30.49119534	      8.10997019	      1.19931895	    -23.51016227	      5.27284799	    -11.75399500	      0.00000000	     -9.20827164	      0.14941165	      4.16301186	    -44.64705557	    -10.97121705	      8.57720660	      0.00000000	    -13.41947178	      6.08030746	    -12.76446529
